PathFileType	4	(X/Y/Z)	C:/Users/beibeiliu/ov580/test_trc/User1\sequence.16_training_dense_left.trc
DataRate	CameraRate	NumFrames	NumMarkers	Units	OrigDataRate	OrigDataStartFrame	OrigNumFrames
120	120	22	19	mm	120	101	268
Frame#	Time	ThumbCMC			ThumbMCP			ThumbIP			ThumbTip			IndexMCP			IndexPIP			IndexTip			MiddleMCP			MiddlePIP			MiddleTip			RingMCP			RingPIP			RingTip			PinkyMCP			PinkyPIP			PinkyTip			BackHand1			BackHand2			BackHand3	
		X0	Y0	Z0	X1	Y1	Z1	X2	Y2	Z2	X3	Y3	Z3	X4	Y4	Z4	X5	Y5	Z5	X6	Y6	Z6	X7	Y7	Z7	X8	Y8	Z8	X9	Y9	Z9	X10	Y10	Z10	X11	Y11	Z11	X12	Y12	Z12	X13	Y13	Z13	X14	Y14	Z14	X15	Y15	Z15	X16	Y16	Z16	X17	Y17	Z17	X18	Y18	Z18	
100	0.833333	-202.433	62.2691	48.8071	-178.077	76.8638	33.6314	-163.179	92.7174	23.9147	-145.063	103.227	17.804	-203.442	105.253	-30.7296	-202.237	80.7216	-51.7189	-204.965	55.191	-22.2108	-230.271	99.7643	-43.4763	-221.02	70.2415	-55.1072	-216.816	48.6918	-20.0755	-253.118	96.4836	-40.057	-240.434	69.866	-56.065	-234.99	49.5638	-26.1472	-285.618	92.6799	-18.7268	-291.205	103.618	-32.5828	-303.934	119.912	-42.9213	-263.259	93.5212	23.2228	-264.115	73.6778	55.0491	-228.355	88.8597	44.2371	
101	0.841667	-199.902	67.246	43.4594	-181.753	73.9636	27.6972	-165.457	91.8536	16.4377	-146.112	101.877	11.3913	-204.23	101.515	-35.8096	-202.814	76.249	-54.4802	-207.265	51.7346	-22.7825	-231.792	97.4504	-42.3708	-223.989	62.803	-55.1074	-222.821	44.8189	-23.1224	-253.585	92.6081	-43.9762	-243.536	60.4791	-56.1169	-236.848	45.7343	-27.9629	-286.069	91.2947	-20.0844	-291.08	100.401	-33.6937	-307.508	117.15	-44.2587	-262.276	93.6647	22.2855	-265.321	76.7675	49.2664	-227.297	93.1251	39.8417	
102	0.85	-198.329	66.3441	40.0297	-178.521	74.6358	22.7525	-163.622	87.7494	10.3158	-144.56	97.1503	3.6744	-204.148	94.4829	-44.3113	-204.686	65.9753	-57.9276	-209.03	46.8755	-28.4007	-235.113	89.3626	-49.6165	-222.807	57.4372	-58.8085	-222.207	38.7367	-23.8537	-257.952	84.444	-46.5589	-244.037	54.2011	-57.318	-239.619	39.0987	-27.7339	-284.244	87.2289	-22.2282	-293.86	97.1453	-39.0663	-310.483	111.002	-47.02	-262.984	91.825	17.3805	-260.689	78.0581	47.5183	-229.363	91.5898	35.0437	
103	0.858333	-201.045	62.6486	35.0473	-180.759	68.8652	17.9769	-161.543	82.5147	4.69635	-143.966	91.5582	-3.539	-210.212	85.9061	-49.0345	-210.307	54.2617	-60.3449	-208.527	39.3702	-27.1666	-236.8	79.965	-52.8486	-228.692	44.818	-58.5254	-223.036	31.311	-26.1129	-257.361	76.1674	-50.2091	-247.093	45.3179	-58.6999	-239.936	32.6617	-26.1407	-287.586	82.3413	-26.3499	-296.338	89.4458	-42.3211	-312.166	104.878	-51.2873	-262.376	87.9239	12.8023	-260.887	77.3875	44.5337	-229.265	88.2397	29.9578	
104	0.866667	-200.403	60.3931	34.6884	-181.039	67.3559	12.7327	-161.767	79.5156	-1.48855	-143.695	89.5548	-10.9744	-211.307	77.0107	-53.1254	-213.315	43.5458	-60.2954	-211.541	32.7011	-25.1512	-240.506	70.438	-55.206	-230.823	36.7	-59.7206	-222.819	26.6123	-20.5053	-261.091	65.246	-54.8811	-250.073	36.9402	-60.0011	-239.154	26.0743	-27.0127	-287.201	73.8159	-26.2698	-297.492	79.9487	-43.7279	-313.903	92.7568	-52.6979	-264.645	86.0344	10.2197	-264.324	75.9722	46.9732	-226.087	84.2473	27.7852	
105	0.875	-200.896	60.6667	30.9374	-179.93	63.295	12.7044	-165.543	76.537	-6.21296	-147.87	80.8434	-11.9017	-208.858	69.6569	-53.9275	-214.08	39.0184	-61.8371	-208.429	26.4314	-25.1855	-235.12	65.2036	-56.9756	-229.8	31.032	-60.2288	-221.585	20.3189	-21.6154	-260.275	62.7878	-51.645	-247.273	28.3013	-58.3921	-239.105	20.3361	-24.1414	-290.395	68.0478	-29.2661	-298.984	73.0832	-44.1591	-309.063	85.976	-58.9028	-259.314	82.369	8.69113	-260.005	75.1256	44.2207	-229.392	82.8826	21.46	
106	0.883333	-195.886	59.0799	33.0148	-176.371	60.7518	15.5306	-162.756	74.5272	-5.35072	-144.5	82.9417	-15.7616	-208.613	63.2554	-56.6327	-210.335	31.9778	-60.5951	-208.88	23.1595	-25.6312	-236.102	58.0998	-59.5464	-229.083	26.1399	-57.8142	-224.574	17.8433	-17.8392	-258.725	58.6536	-52.9004	-251.11	25.4089	-57.7482	-242.185	16.3405	-26.796	-288.04	66.9328	-34.4095	-300.492	68.4027	-45.3924	-314.558	81.3941	-62.4994	-261.795	79.3967	5.4719	-260.495	72.9323	43.577	-224.324	80.9082	23.7565	
107	0.891667	-198.642	56.7252	34.4421	-178.067	63.7125	12.1746	-164.312	73.2919	-3.56314	-145.024	82.3863	-11.8599	-206.356	64.2977	-53.2311	-209.315	30.7115	-59.391	-209.324	22.5072	-23.6882	-235.123	55.3348	-58.3507	-225.983	22.3376	-54.9046	-223.399	16.4365	-19.4641	-258.896	53.9643	-53.8954	-251.468	22.0959	-57.748	-237.694	15.4584	-25.4495	-287.544	64.0317	-32.9525	-295.779	65.0604	-47.1591	-308.81	77.0675	-64.1463	-263.241	77.7973	6.35772	-261.083	71.1551	42.9745	-226.002	82.3705	23.4985	
108	0.9	-199.23	59.2523	36.5497	-181.019	64.1746	14.6184	-163.287	76.7322	-0.175893	-146.575	82.4768	-8.18841	-205.197	65.4091	-52.0822	-205.653	31.9568	-57.7402	-201.948	24.2046	-20.7995	-230.697	56.4822	-58.1239	-222.342	22.2561	-52.4347	-217.771	19.9155	-15.2132	-256.667	51.1981	-56.0641	-246.905	21.7607	-57.115	-236.05	17.0941	-23.5946	-286.854	60.8338	-33.8022	-297.777	63.305	-49.7118	-305.187	75.8232	-63.4236	-261.329	77.727	6.75145	-262.075	72.549	41.0601	-228.752	80.7157	22.6173	
109	0.908333	-202.13	63.9506	37.0834	-178.244	70.3053	21.9367	-165.192	80.8583	3.369	-146.939	91.5508	-5.30207	-205.531	67.8228	-49.8419	-201.237	38.9217	-55.5947	-200.346	27.2064	-22.3251	-230.116	62.3749	-52.8875	-217.522	26.659	-53.0613	-218.456	21.5084	-16.3695	-253.074	54.7156	-54.3956	-238.545	23.4684	-54.4529	-233.97	17.9154	-24.7523	-286.502	59.4201	-35.1203	-291.327	63.5336	-52.3239	-305.444	73.4328	-65.3767	-264.594	74.8416	9.89487	-265.438	71.1844	44.0243	-231.131	83.18	28.6409	
110	0.916667	-203.365	68.5745	44.6882	-180.626	79.5497	24.5115	-168.43	91.6533	7.28901	-153.752	102.035	-1.6521	-203.794	76.6522	-45.2828	-198.339	44.0152	-50.3355	-197.913	33.0601	-19.6548	-226.23	65.7665	-53.1883	-213.872	32.6631	-51.5481	-212.871	28.6471	-10.5035	-249.087	58.8334	-53.379	-233.201	29.4581	-56.1035	-229.522	22.1411	-22.8742	-281.474	59.1222	-35.3371	-288.237	60.9483	-52.4452	-298.873	70.4517	-69.0753	-267.831	73.9005	9.53672	-270.855	68.2362	43.542	-235.093	86.5357	30.7118	
111	0.925	-209.333	75.6907	46.2265	-188.805	83.8959	31.2738	-175.907	101.599	15.2523	-160.038	114.057	9.09662	-204.656	84.9005	-41.491	-194.911	54.8627	-49.1815	-196.924	42.8172	-13.7819	-224.939	72.5157	-51.7401	-210.688	41.5487	-50.8863	-211.801	34.3449	-10.3431	-249.202	59.0115	-52.2871	-229.299	32.8042	-54.8483	-225.084	27.7269	-21.8353	-282.277	54.3164	-32.0919	-288.669	56.4486	-50.2174	-302.211	65.86	-72.2448	-268.411	75.2495	5.50576	-272.726	67.2773	42.7399	-244.05	86.3774	32.156	
112	0.933333	-213.329	82.9438	50.6391	-195.086	96.0676	32.2104	-185.354	113.39	17.6533	-170.11	129.245	12.4049	-209.339	94.2694	-38.3879	-191.453	65.3659	-44.9854	-195.999	53.1175	-9.81261	-233.313	76.5053	-48.4833	-207.04	52.3313	-50.2334	-207.345	41.7305	-12.0842	-248.821	61.734	-52.3649	-225.986	39.5012	-53.6504	-220.951	35.3264	-20.6207	-281.922	53.4016	-36.676	-285.567	54.5728	-51.1715	-298.578	60.5497	-74.4178	-274.263	71.6447	9.79116	-276.419	65.9889	41.0731	-250.245	91.1453	31.7762	
113	0.941667	-219.104	89.9828	48.6249	-203.728	101.867	34.9286	-194.342	123.749	20.4322	-182.917	141.396	14.4233	-218.772	101.289	-36.6338	-198.705	73.2971	-44.8566	-199.51	61.4818	-10.6993	-237.048	79.1414	-50.6444	-211.274	59.8897	-49.6958	-213.51	49.6233	-7.25171	-252.819	66.309	-51.9655	-228.027	47.5679	-52.6812	-224.456	40.3442	-16.8386	-285.23	52.3332	-32.6861	-293.585	51.9272	-53.3159	-305.875	57.0232	-73.5949	-277.023	75.9213	9.54049	-283.148	62.8776	43.5013	-255.202	92.0041	35.7738	
114	0.95	-227.465	88.8181	51.1129	-213.775	109.56	31.2128	-207.969	131.392	18.4159	-197.604	146.078	12.6538	-230.483	107.801	-37.4818	-209.554	81.9282	-46.4722	-209.575	66.0441	-16.4984	-246.788	88.4541	-46.341	-220.537	62.3439	-46.8876	-215.777	55.0184	-13.1772	-264.049	67.6698	-51.6856	-238.235	52.1872	-53.7127	-229.208	45.1505	-21.205	-291.822	55.4254	-28.5786	-299.184	55.9711	-48.5411	-314.095	57.143	-67.6811	-285.414	72.0757	15.0251	-288.245	62.511	42.7808	-265.582	92.1836	37.4099	
115	0.958333	-235.685	91.9836	47.5055	-222.432	108.605	32.565	-217.535	135.851	18.7467	-210.142	151.476	12.9487	-243.505	111.946	-36.5882	-221.114	86.393	-48.3768	-215.777	72.5912	-19.2245	-261.07	88.1301	-47.141	-233.114	64.3764	-47.4939	-225.966	59.0188	-14.0889	-276.455	73.9628	-45.8321	-245.484	54.3861	-52.0391	-238.662	50.3338	-21.2619	-304.965	55.9633	-29.4706	-311.911	53.6431	-45.3296	-326.054	61.6992	-65.9258	-294.684	73.842	14.7905	-292.983	64.9332	47.2271	-269.253	96.5963	37.6711	
116	0.966667	-241.882	93.3368	48.0742	-232.617	116.095	28.0168	-228.045	136.653	18.3829	-223.687	156.038	8.9426	-257.033	111.784	-37.1864	-237.701	89.4929	-51.6872	-227.218	74.8923	-19.6917	-274.145	89.8989	-45.8706	-242.487	70.1485	-50.4166	-237.729	59.3714	-13.3175	-288.928	72.534	-45.955	-257.221	57.3662	-53.7932	-248.285	49.4069	-23.1633	-313.632	57.2997	-28.2191	-323.145	53.6316	-41.5922	-340.028	58.8117	-58.8166	-302.752	77.5271	17.1205	-302.185	62.7347	48.4088	-279.035	96.4434	40.2465	
117	0.975	-248.033	96.4776	45.2113	-239.481	120.176	26.9718	-239.04	138.363	15.1825	-234.154	156.934	7.50211	-268.348	110.76	-41.8788	-244.689	91.1049	-52.4109	-235.905	76.7422	-21.0281	-284.338	89.2553	-46.6746	-255.638	68.9598	-52.3856	-245.527	59.3162	-17.0666	-295.324	73.4067	-46.8717	-268.641	59.494	-56.8821	-255.526	50.9928	-24.132	-321.519	51.7995	-24.2424	-332.298	51.2294	-41.7308	-350.885	57.921	-56.8597	-310.82	74.4998	14.6803	-301.89	62.3812	50.9027	-289.126	93.6692	35.789	
118	0.983333	-256.969	97.0598	39.5517	-249.531	120.539	20.9756	-251.336	139.685	7.38961	-242.176	160.531	5.11698	-275.777	110.882	-44.1935	-251.052	89.9148	-55.1225	-241.281	76.9248	-25.2075	-289.481	87.849	-48.279	-259.359	71.5372	-54.9931	-248.023	61.4441	-17.3732	-301.256	64.9982	-51.3767	-273.16	53.0428	-57.7343	-258.006	49.2253	-23.7401	-325.836	47.6272	-25.446	-336.197	45.691	-39.6743	-354.924	52.1935	-56.0979	-317.113	68.5904	16.2255	-308.317	58.9753	49.2818	-291.587	93.9929	36.6217	
119	0.991667	-262.866	98.9374	36.1734	-255.982	122.436	18.1216	-258.622	142.554	2.5077	-253.247	160.259	-2.98689	-281.766	107.483	-44.8603	-256.586	88.9953	-58.981	-242.173	77.5964	-26.4395	-293.069	79.661	-53.0387	-258.449	65.6713	-55.0338	-247.651	62.1106	-16.3779	-302.85	59.8221	-52.3207	-270.443	51.653	-58.2676	-257.041	46.9732	-27.6477	-325.814	41.3072	-27.8987	-335.873	36.5189	-42.9901	-353.447	41.1717	-61.0943	-320.85	65.074	11.2177	-312.01	56.0868	45.309	-299.945	89.9915	33.8468	
120	1	-265.201	103.402	35.9975	-259.699	117.45	14.214	-263.162	137.865	-4.8851	-259.027	154.274	-9.66277	-282.072	98.8753	-52.6863	-256.69	83.4599	-60.9191	-239.07	77.1996	-30.4972	-292.882	72.5536	-53.1462	-256.207	63.2172	-56.8306	-245.556	60.5625	-21.6166	-299.847	54.2831	-49.9549	-267.339	45.6378	-58.8903	-251.452	45.066	-24.7373	-319.314	34.2007	-32.1372	-328.176	28.8687	-49.043	-341.71	26.7796	-60.9469	-317.834	57.7705	12.5063	-310.583	53.5549	44.4975	-301.388	92.2518	25.871	
121	1.00833	-269.213	106.564	31.6778	-262.057	119.046	11.2173	-267.594	137.469	-8.9483	-267.272	157.932	-18.8539	-278.695	90.1878	-55.3869	-250.533	78.4902	-61.8812	-237.088	74.7395	-26.1968	-281.719	64.1111	-58.4337	-250.037	61.473	-59.54	-237.689	58.5615	-21.6152	-288.746	40.6303	-51.0091	-254.86	36.3971	-55.0237	-242.468	42.8139	-24.1243	-306.397	22.0276	-29.8799	-310.301	14.3434	-47.1595	-321.242	8.92594	-65.9695	-312.644	53.3227	5.75887	-308.472	51.008	43.8484	-303.809	87.2842	23.7141	
